<svg xmlns="http://www.w3.org/2000/svg" width="1200" height="505" viewBox="0 0 1200 505" role="img" aria-labelledby="title">
<title id="title">Agent trace failure mode</title>
<defs>
<marker id="arrow" markerWidth="8" markerHeight="6" refX="7" refY="3" orient="auto"><path d="M0,0 L8,3 L0,6 z" fill="#20262E"/></marker>
<pattern id="evictedHatch" width="8" height="8" patternUnits="userSpaceOnUse"><rect width="8" height="8" fill="#ECEFF1"/><path d="M-2,8 L8,-2 M2,10 L10,2" stroke="#AEB5BC" stroke-width="1"/></pattern>
</defs>
<rect x="0.0" y="0.0" width="1200.0" height="505.0" fill="white" stroke="white" stroke-width="1.1"/>
<text x="42.0" y="39.0" text-anchor="start" font-family="Liberation Sans,Arial,sans-serif" font-size="20.2" font-weight="700" fill="#20262E">Illustrative agent trace</text>
<text x="42.0" y="70.0" text-anchor="start" font-family="Liberation Sans,Arial,sans-serif" font-size="16.9" font-weight="400" fill="#5D6772">Matched 14/26-token budgets; hatched cells are evicted.</text>
<line x1="76.0" y1="119.0" x2="155.0" y2="119.0" stroke="#20262E" stroke-width="0.9"/>
<line x1="76.0" y1="115.0" x2="76.0" y2="123.0" stroke="#20262E" stroke-width="0.9"/>
<line x1="155.0" y1="115.0" x2="155.0" y2="123.0" stroke="#20262E" stroke-width="0.9"/>
<text x="115.5" y="108.0" text-anchor="middle" font-family="Liberation Sans,Arial,sans-serif" font-size="15.5" font-weight="400" fill="#5D6772">system</text>
<line x1="156.0" y1="119.0" x2="315.0" y2="119.0" stroke="#20262E" stroke-width="0.9"/>
<line x1="156.0" y1="115.0" x2="156.0" y2="123.0" stroke="#20262E" stroke-width="0.9"/>
<line x1="315.0" y1="115.0" x2="315.0" y2="123.0" stroke="#20262E" stroke-width="0.9"/>
<text x="235.5" y="108.0" text-anchor="middle" font-family="Liberation Sans,Arial,sans-serif" font-size="15.5" font-weight="400" fill="#5D6772">tool schema</text>
<line x1="316.0" y1="119.0" x2="475.0" y2="119.0" stroke="#20262E" stroke-width="0.9"/>
<line x1="316.0" y1="115.0" x2="316.0" y2="123.0" stroke="#20262E" stroke-width="0.9"/>
<line x1="475.0" y1="115.0" x2="475.0" y2="123.0" stroke="#20262E" stroke-width="0.9"/>
<text x="395.5" y="108.0" text-anchor="middle" font-family="Liberation Sans,Arial,sans-serif" font-size="15.5" font-weight="400" fill="#5D6772">filler</text>
<line x1="476.0" y1="119.0" x2="555.0" y2="119.0" stroke="#20262E" stroke-width="0.9"/>
<line x1="476.0" y1="115.0" x2="476.0" y2="123.0" stroke="#20262E" stroke-width="0.9"/>
<line x1="555.0" y1="115.0" x2="555.0" y2="123.0" stroke="#20262E" stroke-width="0.9"/>
<text x="515.5" y="108.0" text-anchor="middle" font-family="Liberation Sans,Arial,sans-serif" font-size="15.5" font-weight="400" fill="#5D6772">ORDER_ID</text>
<line x1="556.0" y1="119.0" x2="635.0" y2="119.0" stroke="#20262E" stroke-width="0.9"/>
<line x1="556.0" y1="115.0" x2="556.0" y2="123.0" stroke="#20262E" stroke-width="0.9"/>
<line x1="635.0" y1="115.0" x2="635.0" y2="123.0" stroke="#20262E" stroke-width="0.9"/>
<text x="595.5" y="108.0" text-anchor="middle" font-family="Liberation Sans,Arial,sans-serif" font-size="15.5" font-weight="400" fill="#5D6772">filler</text>
<line x1="636.0" y1="119.0" x2="715.0" y2="119.0" stroke="#20262E" stroke-width="0.9"/>
<line x1="636.0" y1="115.0" x2="636.0" y2="123.0" stroke="#20262E" stroke-width="0.9"/>
<line x1="715.0" y1="115.0" x2="715.0" y2="123.0" stroke="#20262E" stroke-width="0.9"/>
<text x="675.5" y="108.0" text-anchor="middle" font-family="Liberation Sans,Arial,sans-serif" font-size="15.5" font-weight="400" fill="#5D6772">constraint</text>
<line x1="716.0" y1="119.0" x2="955.0" y2="119.0" stroke="#20262E" stroke-width="0.9"/>
<line x1="716.0" y1="115.0" x2="716.0" y2="123.0" stroke="#20262E" stroke-width="0.9"/>
<line x1="955.0" y1="115.0" x2="955.0" y2="123.0" stroke="#20262E" stroke-width="0.9"/>
<text x="835.5" y="108.0" text-anchor="middle" font-family="Liberation Sans,Arial,sans-serif" font-size="15.5" font-weight="400" fill="#5D6772">filler</text>
<line x1="956.0" y1="119.0" x2="1115.0" y2="119.0" stroke="#20262E" stroke-width="0.9"/>
<line x1="956.0" y1="115.0" x2="956.0" y2="123.0" stroke="#20262E" stroke-width="0.9"/>
<line x1="1115.0" y1="115.0" x2="1115.0" y2="123.0" stroke="#20262E" stroke-width="0.9"/>
<text x="1035.5" y="108.0" text-anchor="middle" font-family="Liberation Sans,Arial,sans-serif" font-size="15.5" font-weight="400" fill="#5D6772">final request</text>
<rect x="76.0" y="130.0" width="39.0" height="28.0" fill="#315A48" stroke="white" stroke-width="1.1"/>
<rect x="116.0" y="130.0" width="39.0" height="28.0" fill="#315A48" stroke="white" stroke-width="1.1"/>
<rect x="156.0" y="130.0" width="39.0" height="28.0" fill="#2C6DA4" stroke="white" stroke-width="1.1"/>
<rect x="196.0" y="130.0" width="39.0" height="28.0" fill="#2C6DA4" stroke="white" stroke-width="1.1"/>
<rect x="236.0" y="130.0" width="39.0" height="28.0" fill="#2C6DA4" stroke="white" stroke-width="1.1"/>
<rect x="276.0" y="130.0" width="39.0" height="28.0" fill="#2C6DA4" stroke="white" stroke-width="1.1"/>
<rect x="316.0" y="130.0" width="39.0" height="28.0" fill="#B8BEC5" stroke="white" stroke-width="1.1"/>
<rect x="356.0" y="130.0" width="39.0" height="28.0" fill="#B8BEC5" stroke="white" stroke-width="1.1"/>
<rect x="396.0" y="130.0" width="39.0" height="28.0" fill="#B8BEC5" stroke="white" stroke-width="1.1"/>
<rect x="436.0" y="130.0" width="39.0" height="28.0" fill="#B8BEC5" stroke="white" stroke-width="1.1"/>
<rect x="476.0" y="130.0" width="39.0" height="28.0" fill="#72578D" stroke="white" stroke-width="1.1"/>
<rect x="516.0" y="130.0" width="39.0" height="28.0" fill="#72578D" stroke="white" stroke-width="1.1"/>
<rect x="556.0" y="130.0" width="39.0" height="28.0" fill="#B8BEC5" stroke="white" stroke-width="1.1"/>
<rect x="596.0" y="130.0" width="39.0" height="28.0" fill="#B8BEC5" stroke="white" stroke-width="1.1"/>
<rect x="636.0" y="130.0" width="39.0" height="28.0" fill="#A44747" stroke="white" stroke-width="1.1"/>
<rect x="676.0" y="130.0" width="39.0" height="28.0" fill="#A44747" stroke="white" stroke-width="1.1"/>
<rect x="716.0" y="130.0" width="39.0" height="28.0" fill="#B8BEC5" stroke="white" stroke-width="1.1"/>
<rect x="756.0" y="130.0" width="39.0" height="28.0" fill="#B8BEC5" stroke="white" stroke-width="1.1"/>
<rect x="796.0" y="130.0" width="39.0" height="28.0" fill="#B8BEC5" stroke="white" stroke-width="1.1"/>
<rect x="836.0" y="130.0" width="39.0" height="28.0" fill="#B8BEC5" stroke="white" stroke-width="1.1"/>
<rect x="876.0" y="130.0" width="39.0" height="28.0" fill="#B8BEC5" stroke="white" stroke-width="1.1"/>
<rect x="916.0" y="130.0" width="39.0" height="28.0" fill="#B8BEC5" stroke="white" stroke-width="1.1"/>
<rect x="956.0" y="130.0" width="39.0" height="28.0" fill="#B57A28" stroke="white" stroke-width="1.1"/>
<rect x="996.0" y="130.0" width="39.0" height="28.0" fill="#B57A28" stroke="white" stroke-width="1.1"/>
<rect x="1036.0" y="130.0" width="39.0" height="28.0" fill="#B57A28" stroke="white" stroke-width="1.1"/>
<rect x="1076.0" y="130.0" width="39.0" height="28.0" fill="#B57A28" stroke="white" stroke-width="1.1"/>
<text x="68.0" y="150.0" text-anchor="end" font-family="Liberation Sans,Arial,sans-serif" font-size="15.5" font-weight="700" fill="#5D6772">INPUT</text>
<text x="42.0" y="231.0" text-anchor="start" font-family="Liberation Sans,Arial,sans-serif" font-size="21.6" font-weight="700" fill="#777F88">A</text>
<text x="76.0" y="200.0" text-anchor="start" font-family="Liberation Sans,Arial,sans-serif" font-size="18.9" font-weight="700" fill="#777F88">position-blind selection</text>
<text x="1116.0" y="200.0" text-anchor="end" font-family="Liberation Sans,Arial,sans-serif" font-size="16.2" font-weight="400" fill="#5D6772">14 / 26 kept</text>
<rect x="76.0" y="211.0" width="39.0" height="30.0" fill="#315A48" stroke="white" stroke-width="1.1"/>
<rect x="116.0" y="211.0" width="39.0" height="30.0" fill="#315A48" stroke="white" stroke-width="1.1"/>
<rect x="156.0" y="211.0" width="39.0" height="30.0" fill="url(#evictedHatch)" stroke="#777F88" stroke-width="1.1"/>
<rect x="196.0" y="211.0" width="39.0" height="30.0" fill="url(#evictedHatch)" stroke="#777F88" stroke-width="1.1"/>
<rect x="236.0" y="211.0" width="39.0" height="30.0" fill="url(#evictedHatch)" stroke="#777F88" stroke-width="1.1"/>
<rect x="276.0" y="211.0" width="39.0" height="30.0" fill="url(#evictedHatch)" stroke="#777F88" stroke-width="1.1"/>
<rect x="316.0" y="211.0" width="39.0" height="30.0" fill="#B8BEC5" stroke="white" stroke-width="1.1"/>
<rect x="356.0" y="211.0" width="39.0" height="30.0" fill="#B8BEC5" stroke="white" stroke-width="1.1"/>
<rect x="396.0" y="211.0" width="39.0" height="30.0" fill="#B8BEC5" stroke="white" stroke-width="1.1"/>
<rect x="436.0" y="211.0" width="39.0" height="30.0" fill="#B8BEC5" stroke="white" stroke-width="1.1"/>
<rect x="476.0" y="211.0" width="39.0" height="30.0" fill="url(#evictedHatch)" stroke="#777F88" stroke-width="1.1"/>
<rect x="516.0" y="211.0" width="39.0" height="30.0" fill="url(#evictedHatch)" stroke="#777F88" stroke-width="1.1"/>
<rect x="556.0" y="211.0" width="39.0" height="30.0" fill="#B8BEC5" stroke="white" stroke-width="1.1"/>
<rect x="596.0" y="211.0" width="39.0" height="30.0" fill="#B8BEC5" stroke="white" stroke-width="1.1"/>
<rect x="636.0" y="211.0" width="39.0" height="30.0" fill="url(#evictedHatch)" stroke="#777F88" stroke-width="1.1"/>
<rect x="676.0" y="211.0" width="39.0" height="30.0" fill="url(#evictedHatch)" stroke="#777F88" stroke-width="1.1"/>
<rect x="716.0" y="211.0" width="39.0" height="30.0" fill="#B8BEC5" stroke="white" stroke-width="1.1"/>
<rect x="756.0" y="211.0" width="39.0" height="30.0" fill="#B8BEC5" stroke="white" stroke-width="1.1"/>
<rect x="796.0" y="211.0" width="39.0" height="30.0" fill="url(#evictedHatch)" stroke="#777F88" stroke-width="1.1"/>
<rect x="836.0" y="211.0" width="39.0" height="30.0" fill="url(#evictedHatch)" stroke="#777F88" stroke-width="1.1"/>
<rect x="876.0" y="211.0" width="39.0" height="30.0" fill="url(#evictedHatch)" stroke="#777F88" stroke-width="1.1"/>
<rect x="916.0" y="211.0" width="39.0" height="30.0" fill="url(#evictedHatch)" stroke="#777F88" stroke-width="1.1"/>
<rect x="956.0" y="211.0" width="39.0" height="30.0" fill="#B57A28" stroke="white" stroke-width="1.1"/>
<rect x="996.0" y="211.0" width="39.0" height="30.0" fill="#B57A28" stroke="white" stroke-width="1.1"/>
<rect x="1036.0" y="211.0" width="39.0" height="30.0" fill="#B57A28" stroke="white" stroke-width="1.1"/>
<rect x="1076.0" y="211.0" width="39.0" height="30.0" fill="#B57A28" stroke="white" stroke-width="1.1"/>
<text x="42.0" y="339.0" text-anchor="start" font-family="Liberation Sans,Arial,sans-serif" font-size="21.6" font-weight="700" fill="#2C6DA4">B</text>
<text x="76.0" y="308.0" text-anchor="start" font-family="Liberation Sans,Arial,sans-serif" font-size="18.9" font-weight="700" fill="#2C6DA4">PriorityKV role-aware selection</text>
<text x="1116.0" y="308.0" text-anchor="end" font-family="Liberation Sans,Arial,sans-serif" font-size="16.2" font-weight="400" fill="#5D6772">14 / 26 kept</text>
<rect x="76.0" y="319.0" width="39.0" height="30.0" fill="#315A48" stroke="white" stroke-width="1.1"/>
<rect x="116.0" y="319.0" width="39.0" height="30.0" fill="#315A48" stroke="white" stroke-width="1.1"/>
<rect x="156.0" y="319.0" width="39.0" height="30.0" fill="#2C6DA4" stroke="white" stroke-width="1.1"/>
<rect x="196.0" y="319.0" width="39.0" height="30.0" fill="#2C6DA4" stroke="white" stroke-width="1.1"/>
<rect x="236.0" y="319.0" width="39.0" height="30.0" fill="#2C6DA4" stroke="white" stroke-width="1.1"/>
<rect x="276.0" y="319.0" width="39.0" height="30.0" fill="#2C6DA4" stroke="white" stroke-width="1.1"/>
<rect x="316.0" y="319.0" width="39.0" height="30.0" fill="url(#evictedHatch)" stroke="#777F88" stroke-width="1.1"/>
<rect x="356.0" y="319.0" width="39.0" height="30.0" fill="url(#evictedHatch)" stroke="#777F88" stroke-width="1.1"/>
<rect x="396.0" y="319.0" width="39.0" height="30.0" fill="url(#evictedHatch)" stroke="#777F88" stroke-width="1.1"/>
<rect x="436.0" y="319.0" width="39.0" height="30.0" fill="url(#evictedHatch)" stroke="#777F88" stroke-width="1.1"/>
<rect x="476.0" y="319.0" width="39.0" height="30.0" fill="#72578D" stroke="white" stroke-width="1.1"/>
<rect x="516.0" y="319.0" width="39.0" height="30.0" fill="#72578D" stroke="white" stroke-width="1.1"/>
<rect x="556.0" y="319.0" width="39.0" height="30.0" fill="url(#evictedHatch)" stroke="#777F88" stroke-width="1.1"/>
<rect x="596.0" y="319.0" width="39.0" height="30.0" fill="url(#evictedHatch)" stroke="#777F88" stroke-width="1.1"/>
<rect x="636.0" y="319.0" width="39.0" height="30.0" fill="#A44747" stroke="white" stroke-width="1.1"/>
<rect x="676.0" y="319.0" width="39.0" height="30.0" fill="#A44747" stroke="white" stroke-width="1.1"/>
<rect x="716.0" y="319.0" width="39.0" height="30.0" fill="url(#evictedHatch)" stroke="#777F88" stroke-width="1.1"/>
<rect x="756.0" y="319.0" width="39.0" height="30.0" fill="url(#evictedHatch)" stroke="#777F88" stroke-width="1.1"/>
<rect x="796.0" y="319.0" width="39.0" height="30.0" fill="url(#evictedHatch)" stroke="#777F88" stroke-width="1.1"/>
<rect x="836.0" y="319.0" width="39.0" height="30.0" fill="url(#evictedHatch)" stroke="#777F88" stroke-width="1.1"/>
<rect x="876.0" y="319.0" width="39.0" height="30.0" fill="url(#evictedHatch)" stroke="#777F88" stroke-width="1.1"/>
<rect x="916.0" y="319.0" width="39.0" height="30.0" fill="url(#evictedHatch)" stroke="#777F88" stroke-width="1.1"/>
<rect x="956.0" y="319.0" width="39.0" height="30.0" fill="#B57A28" stroke="white" stroke-width="1.1"/>
<rect x="996.0" y="319.0" width="39.0" height="30.0" fill="#B57A28" stroke="white" stroke-width="1.1"/>
<rect x="1036.0" y="319.0" width="39.0" height="30.0" fill="#B57A28" stroke="white" stroke-width="1.1"/>
<rect x="1076.0" y="319.0" width="39.0" height="30.0" fill="#B57A28" stroke="white" stroke-width="1.1"/>
<polyline points="216.0,242.0 216.0,385.0 244.0,385.0 244.0,403.0" fill="none" stroke="#A44747" stroke-width="1.2" marker-end="url(#arrow)"/>
<rect x="116.0" y="406.0" width="256.0" height="55.0" fill="white" stroke="#A44747" stroke-width="1.2"/>
<text x="244.0" y="428.0" text-anchor="middle" font-family="Liberation Sans,Arial,sans-serif" font-size="16.2" font-weight="700" fill="#A44747">schema lost</text>
<text x="244.0" y="449.0" text-anchor="middle" font-family="Liberation Sans,Arial,sans-serif" font-size="18.2" font-weight="700" fill="#20262E">invalid call</text>
<polyline points="496.0,242.0 496.0,385.0 580.0,385.0 580.0,403.0" fill="none" stroke="#A44747" stroke-width="1.2" marker-end="url(#arrow)"/>
<rect x="452.0" y="406.0" width="256.0" height="55.0" fill="white" stroke="#A44747" stroke-width="1.2"/>
<text x="580.0" y="428.0" text-anchor="middle" font-family="Liberation Sans,Arial,sans-serif" font-size="16.2" font-weight="700" fill="#A44747">state lost</text>
<text x="580.0" y="449.0" text-anchor="middle" font-family="Liberation Sans,Arial,sans-serif" font-size="18.2" font-weight="700" fill="#20262E">wrong ID</text>
<polyline points="656.0,242.0 656.0,385.0 916.0,385.0 916.0,403.0" fill="none" stroke="#A44747" stroke-width="1.2" marker-end="url(#arrow)"/>
<rect x="788.0" y="406.0" width="256.0" height="55.0" fill="white" stroke="#A44747" stroke-width="1.2"/>
<text x="916.0" y="428.0" text-anchor="middle" font-family="Liberation Sans,Arial,sans-serif" font-size="16.2" font-weight="700" fill="#A44747">constraint lost</text>
<text x="916.0" y="449.0" text-anchor="middle" font-family="Liberation Sans,Arial,sans-serif" font-size="18.2" font-weight="700" fill="#20262E">stale policy</text>
<rect x="76.0" y="478.0" width="15.0" height="15.0" fill="url(#evictedHatch)" stroke="#777F88" stroke-width="1.1"/>
<text x="98.0" y="490.0" text-anchor="start" font-family="Liberation Sans,Arial,sans-serif" font-size="15.3" font-weight="400" fill="#20262E">hatched = evicted</text>
<text x="1116.0" y="490.0" text-anchor="end" font-family="Liberation Sans,Arial,sans-serif" font-size="15.3" font-weight="400" fill="#5D6772">sink + recent are mandatory in both arms</text>
</svg>
