<svg xmlns="http://www.w3.org/2000/svg" width="1150" height="560" viewBox="0 0 1150 560" role="img" aria-labelledby="t">
<title id="t">Lock-240 quality by context length</title>
<defs><marker id="ah" markerWidth="10" markerHeight="7" refX="9" refY="3.5" orient="auto"><polygon points="0 0, 10 3.5, 0 7" fill="#52514E"/></marker></defs>
<rect x="0.0" y="0.0" width="1150.0" height="560.0" fill="#FFFFFF" stroke="none" stroke-width="1"/>
<line x1="104.0" y1="398.0" x2="1054.0" y2="398.0" stroke="#E1E0D9" stroke-width="1.0"/>
<text x="92.0" y="403.0" text-anchor="end" font-family="DejaVu Sans,Arial,sans-serif" font-size="14" font-weight="400" fill="#898781">0.5</text>
<line x1="104.0" y1="334.0" x2="1054.0" y2="334.0" stroke="#E1E0D9" stroke-width="1.0"/>
<text x="92.0" y="339.0" text-anchor="end" font-family="DejaVu Sans,Arial,sans-serif" font-size="14" font-weight="400" fill="#898781">0.6</text>
<line x1="104.0" y1="270.0" x2="1054.0" y2="270.0" stroke="#E1E0D9" stroke-width="1.0"/>
<text x="92.0" y="275.0" text-anchor="end" font-family="DejaVu Sans,Arial,sans-serif" font-size="14" font-weight="400" fill="#898781">0.7</text>
<line x1="104.0" y1="206.0" x2="1054.0" y2="206.0" stroke="#E1E0D9" stroke-width="1.0"/>
<text x="92.0" y="211.0" text-anchor="end" font-family="DejaVu Sans,Arial,sans-serif" font-size="14" font-weight="400" fill="#898781">0.8</text>
<line x1="104.0" y1="142.0" x2="1054.0" y2="142.0" stroke="#E1E0D9" stroke-width="1.0"/>
<text x="92.0" y="147.0" text-anchor="end" font-family="DejaVu Sans,Arial,sans-serif" font-size="14" font-weight="400" fill="#898781">0.9</text>
<line x1="104.0" y1="78.0" x2="1054.0" y2="78.0" stroke="#E1E0D9" stroke-width="1.0"/>
<text x="92.0" y="83.0" text-anchor="end" font-family="DejaVu Sans,Arial,sans-serif" font-size="14" font-weight="400" fill="#898781">1.0</text>
<line x1="104.0" y1="430.0" x2="1054.0" y2="430.0" stroke="#C3C2B7" stroke-width="1.5"/>
<text x="30" y="238.0" transform="rotate(-90 30 238.0)" text-anchor="middle" font-family="DejaVu Sans,Arial,sans-serif" font-size="16" fill="#52514E">PriorityBench score</text>
<text x="262.3" y="460.0" text-anchor="middle" font-family="DejaVu Sans,Arial,sans-serif" font-size="16" font-weight="400" fill="#0B0B0B">8k</text>
<text x="262.3" y="482.0" text-anchor="middle" font-family="DejaVu Sans,Arial,sans-serif" font-size="13" font-weight="400" fill="#898781">n = 83</text>
<text x="579.0" y="460.0" text-anchor="middle" font-family="DejaVu Sans,Arial,sans-serif" font-size="16" font-weight="400" fill="#0B0B0B">16k</text>
<text x="579.0" y="482.0" text-anchor="middle" font-family="DejaVu Sans,Arial,sans-serif" font-size="13" font-weight="400" fill="#898781">n = 81</text>
<text x="895.7" y="460.0" text-anchor="middle" font-family="DejaVu Sans,Arial,sans-serif" font-size="16" font-weight="400" fill="#0B0B0B">32k</text>
<text x="895.7" y="482.0" text-anchor="middle" font-family="DejaVu Sans,Arial,sans-serif" font-size="13" font-weight="400" fill="#898781">n = 76</text>
<path d="M246.3,78.0 L563.0,78.0 L879.7,305.4" fill="none" stroke="#008300" stroke-width="2.5" stroke-linejoin="round"/>
<line x1="246.3" y1="106.3" x2="246.3" y2="78.0" stroke="#52514E" stroke-width="1.5"/>
<line x1="242.3" y1="106.3" x2="250.3" y2="106.3" stroke="#52514E" stroke-width="1.5"/>
<line x1="242.3" y1="78.0" x2="250.3" y2="78.0" stroke="#52514E" stroke-width="1.5"/>
<line x1="563.0" y1="107.0" x2="563.0" y2="78.0" stroke="#52514E" stroke-width="1.5"/>
<line x1="559.0" y1="107.0" x2="567.0" y2="107.0" stroke="#52514E" stroke-width="1.5"/>
<line x1="559.0" y1="78.0" x2="567.0" y2="78.0" stroke="#52514E" stroke-width="1.5"/>
<line x1="879.7" y1="377.2" x2="879.7" y2="242.5" stroke="#52514E" stroke-width="1.5"/>
<line x1="875.7" y1="377.2" x2="883.7" y2="377.2" stroke="#52514E" stroke-width="1.5"/>
<line x1="875.7" y1="242.5" x2="883.7" y2="242.5" stroke="#52514E" stroke-width="1.5"/>
<rect x="239.3" y="71.0" width="14.0" height="14.0" fill="#008300" stroke="#FFFFFF" stroke-width="2"/>
<rect x="556.0" y="71.0" width="14.0" height="14.0" fill="#008300" stroke="#FFFFFF" stroke-width="2"/>
<rect x="872.7" y="298.4" width="14.0" height="14.0" fill="#008300" stroke="#FFFFFF" stroke-width="2"/>
<path d="M262.3,78.0 L579.0,78.0 L895.7,322.2" fill="none" stroke="#E87BA4" stroke-width="2.5" stroke-linejoin="round"/>
<line x1="262.3" y1="106.3" x2="262.3" y2="78.0" stroke="#52514E" stroke-width="1.5"/>
<line x1="258.3" y1="106.3" x2="266.3" y2="106.3" stroke="#52514E" stroke-width="1.5"/>
<line x1="258.3" y1="78.0" x2="266.3" y2="78.0" stroke="#52514E" stroke-width="1.5"/>
<line x1="579.0" y1="107.0" x2="579.0" y2="78.0" stroke="#52514E" stroke-width="1.5"/>
<line x1="575.0" y1="107.0" x2="583.0" y2="107.0" stroke="#52514E" stroke-width="1.5"/>
<line x1="575.0" y1="78.0" x2="583.0" y2="78.0" stroke="#52514E" stroke-width="1.5"/>
<line x1="895.7" y1="394.2" x2="895.7" y2="257.6" stroke="#52514E" stroke-width="1.5"/>
<line x1="891.7" y1="394.2" x2="899.7" y2="394.2" stroke="#52514E" stroke-width="1.5"/>
<line x1="891.7" y1="257.6" x2="899.7" y2="257.6" stroke="#52514E" stroke-width="1.5"/>
<polygon points="262.3,70.0 254.3,85.0 270.3,85.0" fill="#E87BA4" stroke="#FFFFFF" stroke-width="2"/>
<polygon points="579.0,70.0 571.0,85.0 587.0,85.0" fill="#E87BA4" stroke="#FFFFFF" stroke-width="2"/>
<polygon points="895.7,314.2 887.7,329.2 903.7,329.2" fill="#E87BA4" stroke="#FFFFFF" stroke-width="2"/>
<path d="M278.3,78.0 L595.0,78.0 L911.7,313.8" fill="none" stroke="#2A78D6" stroke-width="2.5" stroke-linejoin="round"/>
<line x1="278.3" y1="106.3" x2="278.3" y2="78.0" stroke="#52514E" stroke-width="1.5"/>
<line x1="274.3" y1="106.3" x2="282.3" y2="106.3" stroke="#52514E" stroke-width="1.5"/>
<line x1="274.3" y1="78.0" x2="282.3" y2="78.0" stroke="#52514E" stroke-width="1.5"/>
<line x1="595.0" y1="107.0" x2="595.0" y2="78.0" stroke="#52514E" stroke-width="1.5"/>
<line x1="591.0" y1="107.0" x2="599.0" y2="107.0" stroke="#52514E" stroke-width="1.5"/>
<line x1="591.0" y1="78.0" x2="599.0" y2="78.0" stroke="#52514E" stroke-width="1.5"/>
<line x1="911.7" y1="385.7" x2="911.7" y2="250.0" stroke="#52514E" stroke-width="1.5"/>
<line x1="907.7" y1="385.7" x2="915.7" y2="385.7" stroke="#52514E" stroke-width="1.5"/>
<line x1="907.7" y1="250.0" x2="915.7" y2="250.0" stroke="#52514E" stroke-width="1.5"/>
<circle cx="278.3" cy="78.0" r="7.0" fill="#2A78D6" stroke="#FFFFFF" stroke-width="2"/>
<circle cx="595.0" cy="78.0" r="7.0" fill="#2A78D6" stroke="#FFFFFF" stroke-width="2"/>
<circle cx="911.7" cy="313.8" r="7.0" fill="#2A78D6" stroke="#FFFFFF" stroke-width="2"/>
<text x="420.7" y="62.0" text-anchor="middle" font-family="DejaVu Sans,Arial,sans-serif" font-size="13.5" font-weight="400" fill="#898781" font-style="italic">all arms saturate at 1.000</text>
<line x1="144.0" y1="529.0" x2="174.0" y2="529.0" stroke="#008300" stroke-width="2.5"/>
<rect x="153.0" y="523.0" width="12.0" height="12.0" fill="#008300" stroke="#FFFFFF" stroke-width="2"/>
<text x="184.0" y="534.0" text-anchor="start" font-family="DejaVu Sans,Arial,sans-serif" font-size="15" font-weight="400" fill="#52514E">FullKV</text>
<line x1="284.0" y1="529.0" x2="314.0" y2="529.0" stroke="#E87BA4" stroke-width="2.5"/>
<polygon points="299.0,522.0 292.0,535.0 306.0,535.0" fill="#E87BA4" stroke="#FFFFFF" stroke-width="2"/>
<text x="324.0" y="534.0" text-anchor="start" font-family="DejaVu Sans,Arial,sans-serif" font-size="15" font-weight="400" fill="#52514E">Role-blind INT4</text>
<line x1="505.0" y1="529.0" x2="535.0" y2="529.0" stroke="#2A78D6" stroke-width="2.5"/>
<circle cx="520.0" cy="529.0" r="6.0" fill="#2A78D6" stroke="#FFFFFF" stroke-width="2"/>
<text x="545.0" y="534.0" text-anchor="start" font-family="DejaVu Sans,Arial,sans-serif" font-size="15" font-weight="400" fill="#52514E">Structure INT4</text>
<text x="1054.0" y="534.0" text-anchor="end" font-family="DejaVu Sans,Arial,sans-serif" font-size="13" font-weight="400" fill="#898781" font-style="italic">y-axis starts at 0.45; whiskers are Wilson 95% intervals</text>
</svg>
