<svg xmlns="http://www.w3.org/2000/svg" width="1150" height="620" viewBox="0 0 1150 620" role="img" aria-labelledby="t">
<title id="t">Systems ratios vs FullKV</title>
<defs><marker id="ah" markerWidth="10" markerHeight="7" refX="9" refY="3.5" orient="auto"><polygon points="0 0, 10 3.5, 0 7" fill="#52514E"/></marker></defs>
<rect x="0.0" y="0.0" width="1150.0" height="620.0" fill="#FFFFFF" stroke="none" stroke-width="1"/>
<line x1="300.0" y1="66.0" x2="300.0" y2="556.0" stroke="#E1E0D9" stroke-width="1.0"/>
<text x="300.0" y="582.0" text-anchor="middle" font-family="DejaVu Sans,Arial,sans-serif" font-size="14" font-weight="400" fill="#898781">0.00</text>
<line x1="448.5" y1="66.0" x2="448.5" y2="556.0" stroke="#E1E0D9" stroke-width="1.0"/>
<text x="448.5" y="582.0" text-anchor="middle" font-family="DejaVu Sans,Arial,sans-serif" font-size="14" font-weight="400" fill="#898781">0.25</text>
<line x1="596.9" y1="66.0" x2="596.9" y2="556.0" stroke="#E1E0D9" stroke-width="1.0"/>
<text x="596.9" y="582.0" text-anchor="middle" font-family="DejaVu Sans,Arial,sans-serif" font-size="14" font-weight="400" fill="#898781">0.50</text>
<line x1="745.4" y1="66.0" x2="745.4" y2="556.0" stroke="#E1E0D9" stroke-width="1.0"/>
<text x="745.4" y="582.0" text-anchor="middle" font-family="DejaVu Sans,Arial,sans-serif" font-size="14" font-weight="400" fill="#898781">0.75</text>
<line x1="893.8" y1="66.0" x2="893.8" y2="556.0" stroke="#E1E0D9" stroke-width="1.0"/>
<text x="893.8" y="582.0" text-anchor="middle" font-family="DejaVu Sans,Arial,sans-serif" font-size="14" font-weight="400" fill="#898781">1.00</text>
<line x1="1042.3" y1="66.0" x2="1042.3" y2="556.0" stroke="#E1E0D9" stroke-width="1.0"/>
<text x="1042.3" y="582.0" text-anchor="middle" font-family="DejaVu Sans,Arial,sans-serif" font-size="14" font-weight="400" fill="#898781">1.25</text>
<text x="686.0" y="608.0" text-anchor="middle" font-family="DejaVu Sans,Arial,sans-serif" font-size="15" font-weight="400" fill="#52514E">Ratio to FullKV (structure-aware mixed cache; lower is better)</text>
<line x1="893.8" y1="48.0" x2="893.8" y2="556.0" stroke="#52514E" stroke-width="1.5" stroke-dasharray="7 5"/>
<text x="893.8" y="38.0" text-anchor="middle" font-family="DejaVu Sans,Arial,sans-serif" font-size="14" font-weight="600" fill="#52514E">FullKV = 1.00×</text>
<line x1="300.0" y1="66.0" x2="300.0" y2="556.0" stroke="#C3C2B7" stroke-width="1.5"/>
<text x="14.0" y="96.0" text-anchor="start" font-family="DejaVu Sans,Arial,sans-serif" font-size="13.5" font-weight="700" fill="#898781">KV MEMORY</text>
<path d="M300.0,112.0 L576.7,112.0 Q580.7,112.0 580.7,116.0 L580.7,134.0 Q580.7,138.0 576.7,138.0 L300.0,138.0 Z" fill="#2A78D6"/>
<text x="286.0" y="130.0" text-anchor="end" font-family="DejaVu Sans,Arial,sans-serif" font-size="15" font-weight="400" fill="#0B0B0B">Modeled bytes (ideal 4-bit)</text>
<text x="592.7" y="130.0" text-anchor="start" font-family="DejaVu Sans,Arial,sans-serif" font-size="14" font-weight="400" fill="#52514E">0.473×</text>
<path d="M300.0,156.0 L722.8,156.0 Q726.8,156.0 726.8,160.0 L726.8,178.0 Q726.8,182.0 722.8,182.0 L300.0,182.0 Z" fill="#2A78D6"/>
<text x="286.0" y="174.0" text-anchor="end" font-family="DejaVu Sans,Arial,sans-serif" font-size="15" font-weight="400" fill="#0B0B0B">Measured payload (+ scales)</text>
<text x="738.8" y="174.0" text-anchor="start" font-family="DejaVu Sans,Arial,sans-serif" font-size="14" font-weight="400" fill="#52514E">0.719×</text>
<path d="M300.0,200.0 L811.6,200.0 Q815.6,200.0 815.6,204.0 L815.6,222.0 Q815.6,226.0 811.6,226.0 L300.0,226.0 Z" fill="#2A78D6"/>
<text x="286.0" y="218.0" text-anchor="end" font-family="DejaVu Sans,Arial,sans-serif" font-size="15" font-weight="400" fill="#0B0B0B">Peak allocated CUDA</text>
<text x="827.6" y="218.0" text-anchor="start" font-family="DejaVu Sans,Arial,sans-serif" font-size="14" font-weight="400" fill="#52514E">0.868×</text>
<text x="14.0" y="274.0" text-anchor="start" font-family="DejaVu Sans,Arial,sans-serif" font-size="13.5" font-weight="700" fill="#898781">LATENCY</text>
<path d="M300.0,290.0 L960.2,290.0 Q964.2,290.0 964.2,294.0 L964.2,312.0 Q964.2,316.0 960.2,316.0 L300.0,316.0 Z" fill="#2A78D6"/>
<text x="286.0" y="308.0" text-anchor="end" font-family="DejaVu Sans,Arial,sans-serif" font-size="15" font-weight="400" fill="#0B0B0B">E2E TTFT, 8k</text>
<text x="976.2" y="308.0" text-anchor="start" font-family="DejaVu Sans,Arial,sans-serif" font-size="14" font-weight="400" fill="#52514E">1.118×</text>
<path d="M300.0,334.0 L957.0,334.0 Q961.0,334.0 961.0,338.0 L961.0,356.0 Q961.0,360.0 957.0,360.0 L300.0,360.0 Z" fill="#2A78D6"/>
<text x="286.0" y="352.0" text-anchor="end" font-family="DejaVu Sans,Arial,sans-serif" font-size="15" font-weight="400" fill="#0B0B0B">E2E TTFT, 16k</text>
<text x="973.0" y="352.0" text-anchor="start" font-family="DejaVu Sans,Arial,sans-serif" font-size="14" font-weight="400" fill="#52514E">1.113×</text>
<path d="M300.0,378.0 L1008.5,378.0 Q1012.5,378.0 1012.5,382.0 L1012.5,400.0 Q1012.5,404.0 1008.5,404.0 L300.0,404.0 Z" fill="#2A78D6"/>
<text x="286.0" y="396.0" text-anchor="end" font-family="DejaVu Sans,Arial,sans-serif" font-size="15" font-weight="400" fill="#0B0B0B">TPOT, 8k</text>
<text x="1024.5" y="396.0" text-anchor="start" font-family="DejaVu Sans,Arial,sans-serif" font-size="14" font-weight="400" fill="#52514E">1.200×</text>
<path d="M300.0,422.0 L1017.3,422.0 Q1021.3,422.0 1021.3,426.0 L1021.3,444.0 Q1021.3,448.0 1017.3,448.0 L300.0,448.0 Z" fill="#2A78D6"/>
<text x="286.0" y="440.0" text-anchor="end" font-family="DejaVu Sans,Arial,sans-serif" font-size="15" font-weight="400" fill="#0B0B0B">TPOT, 16k</text>
<text x="1033.3" y="440.0" text-anchor="start" font-family="DejaVu Sans,Arial,sans-serif" font-size="14" font-weight="400" fill="#52514E">1.215×</text>
</svg>
