<svg xmlns="http://www.w3.org/2000/svg" width="1400" height="640" viewBox="0 0 1400 640" role="img" aria-labelledby="t">
<title id="t">Two-call FlashInfer decode with LSE merge</title>
<defs><marker id="ah" markerWidth="10" markerHeight="7" refX="9" refY="3.5" orient="auto"><polygon points="0 0, 10 3.5, 0 7" fill="#52514E"/></marker></defs>
<rect x="0.0" y="0.0" width="1400.0" height="640.0" fill="#FFFFFF" stroke="none" stroke-width="1"/>
<text x="60.0" y="96.0" text-anchor="start" font-family="DejaVu Sans,Arial,sans-serif" font-size="13.5" font-weight="700" fill="#898781">HOT PATH — BF16</text>
<text x="60.0" y="346.0" text-anchor="start" font-family="DejaVu Sans,Arial,sans-serif" font-size="13.5" font-weight="700" fill="#898781">COLD PATH — PACKED INT4</text>
<rect x="60.0" y="112.0" width="280.0" height="138.0" fill="#FFFFFF" stroke="#C3C2B7" stroke-width="1.5" rx="9"/>
<path d="M60.0,146.0 L60.0,121.0 Q60.0,112.0 69.0,112.0 L331.0,112.0 Q340.0,112.0 340.0,121.0 L340.0,146.0 Z" fill="#008300" fill-opacity="0.16"/>
<line x1="60.0" y1="146.0" x2="340.0" y2="146.0" stroke="#008300" stroke-width="2"/>
<text x="200.0" y="135.0" text-anchor="middle" font-family="DejaVu Sans,Arial,sans-serif" font-size="16.5" font-weight="700" fill="#0B0B0B">Hot cache</text>
<text x="200.0" y="170.0" text-anchor="middle" font-family="DejaVu Sans,Arial,sans-serif" font-size="13.5" font-weight="400" fill="#52514E">BF16 protected pages</text>
<text x="200.0" y="192.0" text-anchor="middle" font-family="DejaVu Sans,Arial,sans-serif" font-size="13.5" font-weight="400" fill="#52514E">+ BF16 decode tail</text>
<text x="200.0" y="214.0" text-anchor="middle" font-family="DejaVu Sans,Arial,sans-serif" font-size="13.5" font-weight="400" fill="#52514E">GPU resident</text>
<rect x="495.0" y="112.0" width="280.0" height="138.0" fill="#FFFFFF" stroke="#C3C2B7" stroke-width="1.5" rx="9"/>
<path d="M495.0,146.0 L495.0,121.0 Q495.0,112.0 504.0,112.0 L766.0,112.0 Q775.0,112.0 775.0,121.0 L775.0,146.0 Z" fill="#66717C" fill-opacity="0.16"/>
<line x1="495.0" y1="146.0" x2="775.0" y2="146.0" stroke="#66717C" stroke-width="2"/>
<text x="635.0" y="135.0" text-anchor="middle" font-family="DejaVu Sans,Arial,sans-serif" font-size="16.5" font-weight="700" fill="#0B0B0B">FlashInfer attention A</text>
<text x="635.0" y="170.0" text-anchor="middle" font-family="DejaVu Sans,Arial,sans-serif" font-size="13.5" font-weight="400" fill="#52514E">query × hot K/V</text>
<text x="635.0" y="192.0" text-anchor="middle" font-family="DejaVu Sans,Arial,sans-serif" font-size="13.5" font-weight="400" fill="#52514E">partial output Oₕ, LSEₕ</text>
<rect x="930.0" y="112.0" width="280.0" height="138.0" fill="#FFFFFF" stroke="#C3C2B7" stroke-width="1.5" rx="9"/>
<path d="M930.0,146.0 L930.0,121.0 Q930.0,112.0 939.0,112.0 L1201.0,112.0 Q1210.0,112.0 1210.0,121.0 L1210.0,146.0 Z" fill="#4A3AA7" fill-opacity="0.16"/>
<line x1="930.0" y1="146.0" x2="1210.0" y2="146.0" stroke="#4A3AA7" stroke-width="2"/>
<text x="1070.0" y="135.0" text-anchor="middle" font-family="DejaVu Sans,Arial,sans-serif" font-size="16.5" font-weight="700" fill="#0B0B0B">LSE merge</text>
<text x="1070.0" y="170.0" text-anchor="middle" font-family="DejaVu Sans,Arial,sans-serif" font-size="13.5" font-weight="400" fill="#52514E">flashinfer.merge_state</text>
<text x="1070.0" y="192.0" text-anchor="middle" font-family="DejaVu Sans,Arial,sans-serif" font-size="13.5" font-weight="400" fill="#52514E">exact softmax over</text>
<text x="1070.0" y="214.0" text-anchor="middle" font-family="DejaVu Sans,Arial,sans-serif" font-size="13.5" font-weight="400" fill="#52514E">hot ∪ cold pages</text>
<rect x="1268.0" y="112.0" width="92.0" height="138.0" fill="#FFFFFF" stroke="#C3C2B7" stroke-width="1.5" rx="9"/>
<path d="M1268.0,146.0 L1268.0,121.0 Q1268.0,112.0 1277.0,112.0 L1351.0,112.0 Q1360.0,112.0 1360.0,121.0 L1360.0,146.0 Z" fill="#66717C" fill-opacity="0.16"/>
<line x1="1268.0" y1="146.0" x2="1360.0" y2="146.0" stroke="#66717C" stroke-width="2"/>
<text x="1314.0" y="135.0" text-anchor="middle" font-family="DejaVu Sans,Arial,sans-serif" font-size="16.5" font-weight="700" fill="#0B0B0B">Out</text>
<text x="1314.0" y="170.0" text-anchor="middle" font-family="DejaVu Sans,Arial,sans-serif" font-size="13.5" font-weight="400" fill="#52514E">next</text>
<text x="1314.0" y="192.0" text-anchor="middle" font-family="DejaVu Sans,Arial,sans-serif" font-size="13.5" font-weight="400" fill="#52514E">token</text>
<rect x="60.0" y="362.0" width="280.0" height="138.0" fill="#FFFFFF" stroke="#C3C2B7" stroke-width="1.5" rx="9"/>
<path d="M60.0,396.0 L60.0,371.0 Q60.0,362.0 69.0,362.0 L331.0,362.0 Q340.0,362.0 340.0,371.0 L340.0,396.0 Z" fill="#2A78D6" fill-opacity="0.16"/>
<line x1="60.0" y1="396.0" x2="340.0" y2="396.0" stroke="#2A78D6" stroke-width="2"/>
<text x="200.0" y="385.0" text-anchor="middle" font-family="DejaVu Sans,Arial,sans-serif" font-size="16.5" font-weight="700" fill="#0B0B0B">Cold cache</text>
<text x="200.0" y="420.0" text-anchor="middle" font-family="DejaVu Sans,Arial,sans-serif" font-size="13.5" font-weight="400" fill="#52514E">packed INT4 pages</text>
<text x="200.0" y="442.0" text-anchor="middle" font-family="DejaVu Sans,Arial,sans-serif" font-size="13.5" font-weight="400" fill="#52514E">+ per-group scales</text>
<text x="200.0" y="464.0" text-anchor="middle" font-family="DejaVu Sans,Arial,sans-serif" font-size="13.5" font-weight="400" fill="#52514E">smaller payload bytes</text>
<rect x="495.0" y="362.0" width="280.0" height="138.0" fill="#FFFFFF" stroke="#EB6834" stroke-width="2" rx="9"/>
<path d="M495.0,396.0 L495.0,371.0 Q495.0,362.0 504.0,362.0 L766.0,362.0 Q775.0,362.0 775.0,371.0 L775.0,396.0 Z" fill="#EB6834" fill-opacity="0.16"/>
<line x1="495.0" y1="396.0" x2="775.0" y2="396.0" stroke="#EB6834" stroke-width="2"/>
<text x="635.0" y="385.0" text-anchor="middle" font-family="DejaVu Sans,Arial,sans-serif" font-size="16.5" font-weight="700" fill="#0B0B0B">Cold scratch</text>
<text x="635.0" y="420.0" text-anchor="middle" font-family="DejaVu Sans,Arial,sans-serif" font-size="13.5" font-weight="400" fill="#52514E">dequantize INT4 → BF16</text>
<text x="635.0" y="442.0" text-anchor="middle" font-family="DejaVu Sans,Arial,sans-serif" font-size="13.5" font-weight="400" fill="#52514E">full-layer, transient</text>
<text x="635.0" y="464.0" text-anchor="middle" font-family="DejaVu Sans,Arial,sans-serif" font-size="13.5" font-weight="400" fill="#52514E">limits peak; adds TPOT</text>
<rect x="930.0" y="362.0" width="280.0" height="138.0" fill="#FFFFFF" stroke="#C3C2B7" stroke-width="1.5" rx="9"/>
<path d="M930.0,396.0 L930.0,371.0 Q930.0,362.0 939.0,362.0 L1201.0,362.0 Q1210.0,362.0 1210.0,371.0 L1210.0,396.0 Z" fill="#66717C" fill-opacity="0.16"/>
<line x1="930.0" y1="396.0" x2="1210.0" y2="396.0" stroke="#66717C" stroke-width="2"/>
<text x="1070.0" y="385.0" text-anchor="middle" font-family="DejaVu Sans,Arial,sans-serif" font-size="16.5" font-weight="700" fill="#0B0B0B">FlashInfer attention B</text>
<text x="1070.0" y="420.0" text-anchor="middle" font-family="DejaVu Sans,Arial,sans-serif" font-size="13.5" font-weight="400" fill="#52514E">query × cold K/V</text>
<text x="1070.0" y="442.0" text-anchor="middle" font-family="DejaVu Sans,Arial,sans-serif" font-size="13.5" font-weight="400" fill="#52514E">partial output Oᴄ, LSEᴄ</text>
<line x1="340.0" y1="181.0" x2="495.0" y2="181.0" stroke="#52514E" stroke-width="2.0" marker-end="url(#ah)"/>
<line x1="775.0" y1="181.0" x2="930.0" y2="181.0" stroke="#52514E" stroke-width="2.0" marker-end="url(#ah)"/>
<line x1="1210.0" y1="181.0" x2="1268.0" y2="181.0" stroke="#52514E" stroke-width="2.0" marker-end="url(#ah)"/>
<line x1="340.0" y1="431.0" x2="495.0" y2="431.0" stroke="#52514E" stroke-width="2.0" marker-end="url(#ah)"/>
<line x1="775.0" y1="431.0" x2="930.0" y2="431.0" stroke="#52514E" stroke-width="2.0" marker-end="url(#ah)"/>
<line x1="1070.0" y1="362.0" x2="1070.0" y2="250.0" stroke="#52514E" stroke-width="2.0" marker-end="url(#ah)"/>
<line x1="60.0" y1="552.0" x2="1360.0" y2="552.0" stroke="#E1E0D9" stroke-width="1.0"/>
<text x="60.0" y="588.0" text-anchor="start" font-family="DejaVu Sans,Arial,sans-serif" font-size="14" font-weight="400" fill="#52514E">At most two homogeneous FlashInfer calls per layer; the packed cold pages are never materialized as a full Hugging Face cache.</text>
<text x="60.0" y="616.0" text-anchor="start" font-family="DejaVu Sans,Arial,sans-serif" font-size="13.5" font-weight="400" fill="#898781" font-style="italic">Conceptual diagram, not measured data.</text>
</svg>
