<svg xmlns="http://www.w3.org/2000/svg" width="1200" height="500" viewBox="0 0 1200 500" role="img" aria-labelledby="title">
<title id="title">Lock-240 quality by context length</title>
<defs><marker id="arrowhead" markerWidth="10" markerHeight="7" refX="9" refY="3.5" orient="auto"><polygon points="0 0, 10 3.5, 0 7" fill="#52514E"/></marker></defs>
<rect x="0.0" y="0.0" width="1200.0" height="500.0" fill="#FFFFFF" stroke="none" stroke-width="1"/>
<line x1="92.0" y1="408.0" x2="1176.0" y2="408.0" stroke="#E1E0D9" stroke-width="1.0"/>
<text x="80.0" y="413.0" text-anchor="end" font-family="DejaVu Sans,Arial,sans-serif" font-size="14" font-weight="400" fill="#898781">0.0</text>
<line x1="92.0" y1="334.4" x2="1176.0" y2="334.4" stroke="#E1E0D9" stroke-width="1.0"/>
<text x="80.0" y="339.4" text-anchor="end" font-family="DejaVu Sans,Arial,sans-serif" font-size="14" font-weight="400" fill="#898781">0.2</text>
<line x1="92.0" y1="260.8" x2="1176.0" y2="260.8" stroke="#E1E0D9" stroke-width="1.0"/>
<text x="80.0" y="265.8" text-anchor="end" font-family="DejaVu Sans,Arial,sans-serif" font-size="14" font-weight="400" fill="#898781">0.4</text>
<line x1="92.0" y1="187.2" x2="1176.0" y2="187.2" stroke="#E1E0D9" stroke-width="1.0"/>
<text x="80.0" y="192.2" text-anchor="end" font-family="DejaVu Sans,Arial,sans-serif" font-size="14" font-weight="400" fill="#898781">0.6</text>
<line x1="92.0" y1="113.6" x2="1176.0" y2="113.6" stroke="#E1E0D9" stroke-width="1.0"/>
<text x="80.0" y="118.6" text-anchor="end" font-family="DejaVu Sans,Arial,sans-serif" font-size="14" font-weight="400" fill="#898781">0.8</text>
<line x1="92.0" y1="40.0" x2="1176.0" y2="40.0" stroke="#E1E0D9" stroke-width="1.0"/>
<text x="80.0" y="45.0" text-anchor="end" font-family="DejaVu Sans,Arial,sans-serif" font-size="14" font-weight="400" fill="#898781">1.0</text>
<line x1="92.0" y1="408.0" x2="1176.0" y2="408.0" stroke="#C3C2B7" stroke-width="1.5"/>
<text x="28" y="224.0" transform="rotate(-90 28 224.0)" text-anchor="middle" font-family="DejaVu Sans,Arial,sans-serif" font-size="16" fill="#52514E">PriorityBench score</text>
<path d="M158.5,408.0 L158.5,43.0 Q158.5,40.0 161.5,40.0 L229.6,40.0 Q232.6,40.0 232.6,43.0 L232.6,408.0 Z" fill="#008300"/>
<line x1="195.6" y1="56.3" x2="195.6" y2="40.0" stroke="#52514E" stroke-width="1.8"/>
<line x1="191.6" y1="40.0" x2="199.6" y2="40.0" stroke="#52514E" stroke-width="1.8"/>
<line x1="191.6" y1="56.3" x2="199.6" y2="56.3" stroke="#52514E" stroke-width="1.8"/>
<text x="195.6" y="32.0" text-anchor="middle" font-family="DejaVu Sans,Arial,sans-serif" font-size="13" font-weight="400" fill="#52514E">1.000</text>
<path d="M235.6,408.0 L235.6,43.0 Q235.6,40.0 238.6,40.0 L306.7,40.0 Q309.7,40.0 309.7,43.0 L309.7,408.0 Z" fill="#E87BA4"/>
<line x1="272.7" y1="56.3" x2="272.7" y2="40.0" stroke="#52514E" stroke-width="1.8"/>
<line x1="268.7" y1="40.0" x2="276.7" y2="40.0" stroke="#52514E" stroke-width="1.8"/>
<line x1="268.7" y1="56.3" x2="276.7" y2="56.3" stroke="#52514E" stroke-width="1.8"/>
<text x="272.7" y="32.0" text-anchor="middle" font-family="DejaVu Sans,Arial,sans-serif" font-size="13" font-weight="400" fill="#52514E">1.000</text>
<path d="M312.7,408.0 L312.7,43.0 Q312.7,40.0 315.7,40.0 L383.8,40.0 Q386.8,40.0 386.8,43.0 L386.8,408.0 Z" fill="#2A78D6"/>
<line x1="349.8" y1="56.3" x2="349.8" y2="40.0" stroke="#52514E" stroke-width="1.8"/>
<line x1="345.8" y1="40.0" x2="353.8" y2="40.0" stroke="#52514E" stroke-width="1.8"/>
<line x1="345.8" y1="56.3" x2="353.8" y2="56.3" stroke="#52514E" stroke-width="1.8"/>
<text x="349.8" y="32.0" text-anchor="middle" font-family="DejaVu Sans,Arial,sans-serif" font-size="13" font-weight="400" fill="#52514E">1.000</text>
<text x="272.7" y="435.0" text-anchor="middle" font-family="DejaVu Sans,Arial,sans-serif" font-size="17" font-weight="400" fill="#0B0B0B">8k</text>
<path d="M519.9,408.0 L519.9,43.0 Q519.9,40.0 522.9,40.0 L591.0,40.0 Q594.0,40.0 594.0,43.0 L594.0,408.0 Z" fill="#008300"/>
<line x1="556.9" y1="56.7" x2="556.9" y2="40.0" stroke="#52514E" stroke-width="1.8"/>
<line x1="552.9" y1="40.0" x2="560.9" y2="40.0" stroke="#52514E" stroke-width="1.8"/>
<line x1="552.9" y1="56.7" x2="560.9" y2="56.7" stroke="#52514E" stroke-width="1.8"/>
<text x="556.9" y="32.0" text-anchor="middle" font-family="DejaVu Sans,Arial,sans-serif" font-size="13" font-weight="400" fill="#52514E">1.000</text>
<path d="M597.0,408.0 L597.0,43.0 Q597.0,40.0 600.0,40.0 L668.0,40.0 Q671.0,40.0 671.0,43.0 L671.0,408.0 Z" fill="#E87BA4"/>
<line x1="634.0" y1="56.7" x2="634.0" y2="40.0" stroke="#52514E" stroke-width="1.8"/>
<line x1="630.0" y1="40.0" x2="638.0" y2="40.0" stroke="#52514E" stroke-width="1.8"/>
<line x1="630.0" y1="56.7" x2="638.0" y2="56.7" stroke="#52514E" stroke-width="1.8"/>
<text x="634.0" y="32.0" text-anchor="middle" font-family="DejaVu Sans,Arial,sans-serif" font-size="13" font-weight="400" fill="#52514E">1.000</text>
<path d="M674.0,408.0 L674.0,43.0 Q674.0,40.0 677.0,40.0 L745.1,40.0 Q748.1,40.0 748.1,43.0 L748.1,408.0 Z" fill="#2A78D6"/>
<line x1="711.1" y1="56.7" x2="711.1" y2="40.0" stroke="#52514E" stroke-width="1.8"/>
<line x1="707.1" y1="40.0" x2="715.1" y2="40.0" stroke="#52514E" stroke-width="1.8"/>
<line x1="707.1" y1="56.7" x2="715.1" y2="56.7" stroke="#52514E" stroke-width="1.8"/>
<text x="711.1" y="32.0" text-anchor="middle" font-family="DejaVu Sans,Arial,sans-serif" font-size="13" font-weight="400" fill="#52514E">1.000</text>
<text x="634.0" y="435.0" text-anchor="middle" font-family="DejaVu Sans,Arial,sans-serif" font-size="17" font-weight="400" fill="#0B0B0B">16k</text>
<path d="M881.2,408.0 L881.2,173.7 Q881.2,170.7 884.2,170.7 L952.3,170.7 Q955.3,170.7 955.3,173.7 L955.3,408.0 Z" fill="#008300"/>
<line x1="918.2" y1="212.0" x2="918.2" y2="134.6" stroke="#52514E" stroke-width="1.8"/>
<line x1="914.2" y1="134.6" x2="922.2" y2="134.6" stroke="#52514E" stroke-width="1.8"/>
<line x1="914.2" y1="212.0" x2="922.2" y2="212.0" stroke="#52514E" stroke-width="1.8"/>
<text x="918.2" y="126.6" text-anchor="middle" font-family="DejaVu Sans,Arial,sans-serif" font-size="13" font-weight="400" fill="#52514E">0.645</text>
<path d="M958.3,408.0 L958.3,183.4 Q958.3,180.4 961.3,180.4 L1029.4,180.4 Q1032.4,180.4 1032.4,183.4 L1032.4,408.0 Z" fill="#E87BA4"/>
<line x1="995.3" y1="221.8" x2="995.3" y2="143.2" stroke="#52514E" stroke-width="1.8"/>
<line x1="991.3" y1="143.2" x2="999.3" y2="143.2" stroke="#52514E" stroke-width="1.8"/>
<line x1="991.3" y1="221.8" x2="999.3" y2="221.8" stroke="#52514E" stroke-width="1.8"/>
<text x="995.3" y="135.2" text-anchor="middle" font-family="DejaVu Sans,Arial,sans-serif" font-size="13" font-weight="400" fill="#52514E">0.618</text>
<path d="M1035.4,408.0 L1035.4,178.6 Q1035.4,175.6 1038.4,175.6 L1106.5,175.6 Q1109.5,175.6 1109.5,178.6 L1109.5,408.0 Z" fill="#2A78D6"/>
<line x1="1072.4" y1="216.9" x2="1072.4" y2="138.9" stroke="#52514E" stroke-width="1.8"/>
<line x1="1068.4" y1="138.9" x2="1076.4" y2="138.9" stroke="#52514E" stroke-width="1.8"/>
<line x1="1068.4" y1="216.9" x2="1076.4" y2="216.9" stroke="#52514E" stroke-width="1.8"/>
<text x="1072.4" y="130.9" text-anchor="middle" font-family="DejaVu Sans,Arial,sans-serif" font-size="13" font-weight="400" fill="#52514E">0.632</text>
<text x="995.3" y="435.0" text-anchor="middle" font-family="DejaVu Sans,Arial,sans-serif" font-size="17" font-weight="400" fill="#0B0B0B">32k</text>
<rect x="411.5" y="457.0" width="15.0" height="15.0" fill="#008300" stroke="none" stroke-width="1" rx="3.0"/>
<text x="433.5" y="469.0" text-anchor="start" font-family="DejaVu Sans,Arial,sans-serif" font-size="15" font-weight="400" fill="#52514E">FullKV</text>
<rect x="511.1" y="457.0" width="15.0" height="15.0" fill="#E87BA4" stroke="none" stroke-width="1" rx="3.0"/>
<text x="533.1" y="469.0" text-anchor="start" font-family="DejaVu Sans,Arial,sans-serif" font-size="15" font-weight="400" fill="#52514E">Role-blind INT4</text>
<rect x="688.1" y="457.0" width="15.0" height="15.0" fill="#2A78D6" stroke="none" stroke-width="1" rx="3.0"/>
<text x="710.1" y="469.0" text-anchor="start" font-family="DejaVu Sans,Arial,sans-serif" font-size="15" font-weight="400" fill="#52514E">Structure INT4</text>
</svg>
