<svg xmlns="http://www.w3.org/2000/svg" width="1200" height="500" viewBox="0 0 1200 500" role="img" aria-labelledby="title">
<title id="title">Matched keep-budget eviction sweep</title>
<defs><marker id="arrowhead" markerWidth="10" markerHeight="7" refX="9" refY="3.5" orient="auto"><polygon points="0 0, 10 3.5, 0 7" fill="#52514E"/></marker></defs>
<rect x="0.0" y="0.0" width="1200.0" height="500.0" fill="#FFFFFF" stroke="none" stroke-width="1"/>
<line x1="92.0" y1="408.0" x2="1176.0" y2="408.0" stroke="#E1E0D9" stroke-width="1.0"/>
<text x="80.0" y="413.0" text-anchor="end" font-family="DejaVu Sans,Arial,sans-serif" font-size="14" font-weight="400" fill="#898781">0.0</text>
<line x1="92.0" y1="334.4" x2="1176.0" y2="334.4" stroke="#E1E0D9" stroke-width="1.0"/>
<text x="80.0" y="339.4" text-anchor="end" font-family="DejaVu Sans,Arial,sans-serif" font-size="14" font-weight="400" fill="#898781">0.2</text>
<line x1="92.0" y1="260.8" x2="1176.0" y2="260.8" stroke="#E1E0D9" stroke-width="1.0"/>
<text x="80.0" y="265.8" text-anchor="end" font-family="DejaVu Sans,Arial,sans-serif" font-size="14" font-weight="400" fill="#898781">0.4</text>
<line x1="92.0" y1="187.2" x2="1176.0" y2="187.2" stroke="#E1E0D9" stroke-width="1.0"/>
<text x="80.0" y="192.2" text-anchor="end" font-family="DejaVu Sans,Arial,sans-serif" font-size="14" font-weight="400" fill="#898781">0.6</text>
<line x1="92.0" y1="113.6" x2="1176.0" y2="113.6" stroke="#E1E0D9" stroke-width="1.0"/>
<text x="80.0" y="118.6" text-anchor="end" font-family="DejaVu Sans,Arial,sans-serif" font-size="14" font-weight="400" fill="#898781">0.8</text>
<line x1="92.0" y1="40.0" x2="1176.0" y2="40.0" stroke="#E1E0D9" stroke-width="1.0"/>
<text x="80.0" y="45.0" text-anchor="end" font-family="DejaVu Sans,Arial,sans-serif" font-size="14" font-weight="400" fill="#898781">1.0</text>
<line x1="92.0" y1="408.0" x2="1176.0" y2="408.0" stroke="#C3C2B7" stroke-width="1.5"/>
<text x="28" y="224.0" transform="rotate(-90 28 224.0)" text-anchor="middle" font-family="DejaVu Sans,Arial,sans-serif" font-size="16" fill="#52514E">PriorityBench score</text>

<line x1="185.9" y1="408.0" x2="185.9" y2="328.8" stroke="#52514E" stroke-width="1.8"/>
<line x1="181.9" y1="328.8" x2="189.9" y2="328.8" stroke="#52514E" stroke-width="1.8"/>
<line x1="181.9" y1="408.0" x2="189.9" y2="408.0" stroke="#52514E" stroke-width="1.8"/>
<text x="185.9" y="320.8" text-anchor="middle" font-family="DejaVu Sans,Arial,sans-serif" font-size="13" font-weight="400" fill="#52514E">0.000</text>
<path d="M216.4,408.0 L216.4,384.7 Q216.4,381.7 219.4,381.7 L268.2,381.7 Q271.2,381.7 271.2,384.7 L271.2,408.0 Z" fill="#EDA100"/>
<line x1="243.8" y1="403.3" x2="243.8" y2="292.2" stroke="#52514E" stroke-width="1.8"/>
<line x1="239.8" y1="292.2" x2="247.8" y2="292.2" stroke="#52514E" stroke-width="1.8"/>
<line x1="239.8" y1="403.3" x2="247.8" y2="403.3" stroke="#52514E" stroke-width="1.8"/>
<text x="243.8" y="284.2" text-anchor="middle" font-family="DejaVu Sans,Arial,sans-serif" font-size="13" font-weight="400" fill="#52514E">0.071</text>
<path d="M274.2,408.0 L274.2,174.4 Q274.2,171.4 277.2,171.4 L326.0,171.4 Q329.0,171.4 329.0,174.4 L329.0,408.0 Z" fill="#2A78D6"/>
<line x1="301.6" y1="265.3" x2="301.6" y2="100.1" stroke="#52514E" stroke-width="1.8"/>
<line x1="297.6" y1="100.1" x2="305.6" y2="100.1" stroke="#52514E" stroke-width="1.8"/>
<line x1="297.6" y1="265.3" x2="305.6" y2="265.3" stroke="#52514E" stroke-width="1.8"/>
<text x="301.6" y="92.1" text-anchor="middle" font-family="DejaVu Sans,Arial,sans-serif" font-size="13" font-weight="400" fill="#52514E">0.643</text>
<path d="M332.0,408.0 L332.0,43.0 Q332.0,40.0 335.0,40.0 L383.8,40.0 Q386.8,40.0 386.8,43.0 L386.8,408.0 Z" fill="#008300"/>
<line x1="359.4" y1="119.2" x2="359.4" y2="40.0" stroke="#52514E" stroke-width="1.8"/>
<line x1="355.4" y1="40.0" x2="363.4" y2="40.0" stroke="#52514E" stroke-width="1.8"/>
<line x1="355.4" y1="119.2" x2="363.4" y2="119.2" stroke="#52514E" stroke-width="1.8"/>
<text x="359.4" y="32.0" text-anchor="middle" font-family="DejaVu Sans,Arial,sans-serif" font-size="13" font-weight="400" fill="#52514E">1.000</text>
<text x="272.7" y="435.0" text-anchor="middle" font-family="DejaVu Sans,Arial,sans-serif" font-size="17" font-weight="400" fill="#0B0B0B">15% keep</text>

<line x1="547.3" y1="408.0" x2="547.3" y2="328.8" stroke="#52514E" stroke-width="1.8"/>
<line x1="543.3" y1="328.8" x2="551.3" y2="328.8" stroke="#52514E" stroke-width="1.8"/>
<line x1="543.3" y1="408.0" x2="551.3" y2="408.0" stroke="#52514E" stroke-width="1.8"/>
<text x="547.3" y="320.8" text-anchor="middle" font-family="DejaVu Sans,Arial,sans-serif" font-size="13" font-weight="400" fill="#52514E">0.000</text>
<path d="M577.7,408.0 L577.7,305.9 Q577.7,302.9 580.7,302.9 L629.5,302.9 Q632.5,302.9 632.5,305.9 L632.5,408.0 Z" fill="#EDA100"/>
<line x1="605.1" y1="364.9" x2="605.1" y2="206.9" stroke="#52514E" stroke-width="1.8"/>
<line x1="601.1" y1="206.9" x2="609.1" y2="206.9" stroke="#52514E" stroke-width="1.8"/>
<line x1="601.1" y1="364.9" x2="609.1" y2="364.9" stroke="#52514E" stroke-width="1.8"/>
<text x="605.1" y="198.9" text-anchor="middle" font-family="DejaVu Sans,Arial,sans-serif" font-size="13" font-weight="400" fill="#52514E">0.286</text>
<path d="M635.5,408.0 L635.5,174.4 Q635.5,171.4 638.5,171.4 L687.3,171.4 Q690.3,171.4 690.3,174.4 L690.3,408.0 Z" fill="#2A78D6"/>
<line x1="662.9" y1="265.3" x2="662.9" y2="100.1" stroke="#52514E" stroke-width="1.8"/>
<line x1="658.9" y1="100.1" x2="666.9" y2="100.1" stroke="#52514E" stroke-width="1.8"/>
<line x1="658.9" y1="265.3" x2="666.9" y2="265.3" stroke="#52514E" stroke-width="1.8"/>
<text x="662.9" y="92.1" text-anchor="middle" font-family="DejaVu Sans,Arial,sans-serif" font-size="13" font-weight="400" fill="#52514E">0.643</text>
<path d="M693.3,408.0 L693.3,43.0 Q693.3,40.0 696.3,40.0 L745.1,40.0 Q748.1,40.0 748.1,43.0 L748.1,408.0 Z" fill="#008300"/>
<line x1="720.7" y1="119.2" x2="720.7" y2="40.0" stroke="#52514E" stroke-width="1.8"/>
<line x1="716.7" y1="40.0" x2="724.7" y2="40.0" stroke="#52514E" stroke-width="1.8"/>
<line x1="716.7" y1="119.2" x2="724.7" y2="119.2" stroke="#52514E" stroke-width="1.8"/>
<text x="720.7" y="32.0" text-anchor="middle" font-family="DejaVu Sans,Arial,sans-serif" font-size="13" font-weight="400" fill="#52514E">1.000</text>
<text x="634.0" y="435.0" text-anchor="middle" font-family="DejaVu Sans,Arial,sans-serif" font-size="17" font-weight="400" fill="#0B0B0B">25% keep</text>

<line x1="908.6" y1="408.0" x2="908.6" y2="328.8" stroke="#52514E" stroke-width="1.8"/>
<line x1="904.6" y1="328.8" x2="912.6" y2="328.8" stroke="#52514E" stroke-width="1.8"/>
<line x1="904.6" y1="408.0" x2="912.6" y2="408.0" stroke="#52514E" stroke-width="1.8"/>
<text x="908.6" y="320.8" text-anchor="middle" font-family="DejaVu Sans,Arial,sans-serif" font-size="13" font-weight="400" fill="#52514E">0.000</text>
<path d="M939.0,408.0 L939.0,253.3 Q939.0,250.3 942.0,250.3 L990.8,250.3 Q993.8,250.3 993.8,253.3 L993.8,408.0 Z" fill="#EDA100"/>
<line x1="966.4" y1="329.3" x2="966.4" y2="159.9" stroke="#52514E" stroke-width="1.8"/>
<line x1="962.4" y1="159.9" x2="970.4" y2="159.9" stroke="#52514E" stroke-width="1.8"/>
<line x1="962.4" y1="329.3" x2="970.4" y2="329.3" stroke="#52514E" stroke-width="1.8"/>
<text x="966.4" y="151.9" text-anchor="middle" font-family="DejaVu Sans,Arial,sans-serif" font-size="13" font-weight="400" fill="#52514E">0.429</text>
<path d="M996.8,408.0 L996.8,174.4 Q996.8,171.4 999.8,171.4 L1048.6,171.4 Q1051.6,171.4 1051.6,174.4 L1051.6,408.0 Z" fill="#2A78D6"/>
<line x1="1024.2" y1="265.3" x2="1024.2" y2="100.1" stroke="#52514E" stroke-width="1.8"/>
<line x1="1020.2" y1="100.1" x2="1028.2" y2="100.1" stroke="#52514E" stroke-width="1.8"/>
<line x1="1020.2" y1="265.3" x2="1028.2" y2="265.3" stroke="#52514E" stroke-width="1.8"/>
<text x="1024.2" y="92.1" text-anchor="middle" font-family="DejaVu Sans,Arial,sans-serif" font-size="13" font-weight="400" fill="#52514E">0.643</text>
<path d="M1054.6,408.0 L1054.6,43.0 Q1054.6,40.0 1057.6,40.0 L1106.5,40.0 Q1109.5,40.0 1109.5,43.0 L1109.5,408.0 Z" fill="#008300"/>
<line x1="1082.1" y1="119.2" x2="1082.1" y2="40.0" stroke="#52514E" stroke-width="1.8"/>
<line x1="1078.1" y1="40.0" x2="1086.1" y2="40.0" stroke="#52514E" stroke-width="1.8"/>
<line x1="1078.1" y1="119.2" x2="1086.1" y2="119.2" stroke="#52514E" stroke-width="1.8"/>
<text x="1082.1" y="32.0" text-anchor="middle" font-family="DejaVu Sans,Arial,sans-serif" font-size="13" font-weight="400" fill="#52514E">1.000</text>
<text x="995.3" y="435.0" text-anchor="middle" font-family="DejaVu Sans,Arial,sans-serif" font-size="17" font-weight="400" fill="#0B0B0B">35% keep</text>
<rect x="396.1" y="457.0" width="15.0" height="15.0" fill="#E87BA4" stroke="none" stroke-width="1" rx="3.0"/>
<text x="418.1" y="469.0" text-anchor="start" font-family="DejaVu Sans,Arial,sans-serif" font-size="15" font-weight="400" fill="#52514E">Role-blind</text>
<rect x="530.1" y="457.0" width="15.0" height="15.0" fill="#EDA100" stroke="none" stroke-width="1" rx="3.0"/>
<text x="552.1" y="469.0" text-anchor="start" font-family="DejaVu Sans,Arial,sans-serif" font-size="15" font-weight="400" fill="#52514E">Random</text>
<rect x="629.7" y="457.0" width="15.0" height="15.0" fill="#2A78D6" stroke="none" stroke-width="1" rx="3.0"/>
<text x="651.7" y="469.0" text-anchor="start" font-family="DejaVu Sans,Arial,sans-serif" font-size="15" font-weight="400" fill="#52514E">Structure</text>
<rect x="755.1" y="457.0" width="15.0" height="15.0" fill="#008300" stroke="none" stroke-width="1" rx="3.0"/>
<text x="777.1" y="469.0" text-anchor="start" font-family="DejaVu Sans,Arial,sans-serif" font-size="15" font-weight="400" fill="#52514E">Keep all</text>
</svg>
