<svg xmlns="http://www.w3.org/2000/svg" width="1200" height="400" viewBox="0 0 1200 400" role="img" aria-labelledby="title">
<title id="title">PriorityKV systems tradeoff</title>
<defs><marker id="arrowhead" markerWidth="10" markerHeight="7" refX="9" refY="3.5" orient="auto"><polygon points="0 0, 10 3.5, 0 7" fill="#52514E"/></marker></defs>
<rect x="0.0" y="0.0" width="1200.0" height="400.0" fill="#FFFFFF" stroke="none" stroke-width="1"/>
<text x="86.0" y="32.0" text-anchor="start" font-family="DejaVu Sans,Arial,sans-serif" font-size="16" font-weight="600" fill="#0B0B0B">KV memory, ratio to FullKV (lower is better)</text>
<line x1="86.0" y1="330.0" x2="556.0" y2="330.0" stroke="#E1E0D9" stroke-width="1.0"/>
<text x="76.0" y="335.0" text-anchor="end" font-family="DejaVu Sans,Arial,sans-serif" font-size="13" font-weight="400" fill="#898781">0.00</text>
<line x1="86.0" y1="277.3" x2="556.0" y2="277.3" stroke="#E1E0D9" stroke-width="1.0"/>
<text x="76.0" y="282.3" text-anchor="end" font-family="DejaVu Sans,Arial,sans-serif" font-size="13" font-weight="400" fill="#898781">0.25</text>
<line x1="86.0" y1="224.6" x2="556.0" y2="224.6" stroke="#E1E0D9" stroke-width="1.0"/>
<text x="76.0" y="229.6" text-anchor="end" font-family="DejaVu Sans,Arial,sans-serif" font-size="13" font-weight="400" fill="#898781">0.50</text>
<line x1="86.0" y1="171.9" x2="556.0" y2="171.9" stroke="#E1E0D9" stroke-width="1.0"/>
<text x="76.0" y="176.9" text-anchor="end" font-family="DejaVu Sans,Arial,sans-serif" font-size="13" font-weight="400" fill="#898781">0.75</text>
<line x1="86.0" y1="66.5" x2="556.0" y2="66.5" stroke="#E1E0D9" stroke-width="1.0"/>
<text x="76.0" y="71.5" text-anchor="end" font-family="DejaVu Sans,Arial,sans-serif" font-size="13" font-weight="400" fill="#898781">1.25</text>
<line x1="86.0" y1="119.2" x2="556.0" y2="119.2" stroke="#52514E" stroke-width="1.5" stroke-dasharray="7 5"/>
<text x="554.0" y="112.2" text-anchor="end" font-family="DejaVu Sans,Arial,sans-serif" font-size="13" font-weight="400" fill="#52514E">FullKV parity</text>
<text x="76.0" y="124.2" text-anchor="end" font-family="DejaVu Sans,Arial,sans-serif" font-size="13" font-weight="400" fill="#898781">1.00</text>
<line x1="86.0" y1="330.0" x2="556.0" y2="330.0" stroke="#C3C2B7" stroke-width="1.5"/>
<path d="M132.3,330.0 L132.3,233.4 Q132.3,230.4 135.3,230.4 L193.3,230.4 Q196.3,230.4 196.3,233.4 L196.3,330.0 Z" fill="#2A78D6"/>
<text x="164.3" y="222.4" text-anchor="middle" font-family="DejaVu Sans,Arial,sans-serif" font-size="13" font-weight="400" fill="#52514E">0.473×</text>
<text x="164.3" y="356.0" text-anchor="middle" font-family="DejaVu Sans,Arial,sans-serif" font-size="15" font-weight="400" fill="#0B0B0B">Modeled</text>
<path d="M289.0,330.0 L289.0,181.5 Q289.0,178.5 292.0,178.5 L350.0,178.5 Q353.0,178.5 353.0,181.5 L353.0,330.0 Z" fill="#2A78D6"/>
<text x="321.0" y="170.5" text-anchor="middle" font-family="DejaVu Sans,Arial,sans-serif" font-size="13" font-weight="400" fill="#52514E">0.719×</text>
<text x="321.0" y="356.0" text-anchor="middle" font-family="DejaVu Sans,Arial,sans-serif" font-size="15" font-weight="400" fill="#0B0B0B">Payload</text>
<path d="M445.7,330.0 L445.7,150.0 Q445.7,147.0 448.7,147.0 L506.7,147.0 Q509.7,147.0 509.7,150.0 L509.7,330.0 Z" fill="#2A78D6"/>
<text x="477.7" y="139.0" text-anchor="middle" font-family="DejaVu Sans,Arial,sans-serif" font-size="13" font-weight="400" fill="#52514E">0.868×</text>
<text x="477.7" y="356.0" text-anchor="middle" font-family="DejaVu Sans,Arial,sans-serif" font-size="15" font-weight="400" fill="#0B0B0B">Peak</text>
<text x="656.0" y="32.0" text-anchor="start" font-family="DejaVu Sans,Arial,sans-serif" font-size="16" font-weight="600" fill="#0B0B0B">Latency, ratio to FullKV (lower is better)</text>
<line x1="656.0" y1="330.0" x2="1126.0" y2="330.0" stroke="#E1E0D9" stroke-width="1.0"/>
<text x="646.0" y="335.0" text-anchor="end" font-family="DejaVu Sans,Arial,sans-serif" font-size="13" font-weight="400" fill="#898781">0.00</text>
<line x1="656.0" y1="277.3" x2="1126.0" y2="277.3" stroke="#E1E0D9" stroke-width="1.0"/>
<text x="646.0" y="282.3" text-anchor="end" font-family="DejaVu Sans,Arial,sans-serif" font-size="13" font-weight="400" fill="#898781">0.25</text>
<line x1="656.0" y1="224.6" x2="1126.0" y2="224.6" stroke="#E1E0D9" stroke-width="1.0"/>
<text x="646.0" y="229.6" text-anchor="end" font-family="DejaVu Sans,Arial,sans-serif" font-size="13" font-weight="400" fill="#898781">0.50</text>
<line x1="656.0" y1="171.9" x2="1126.0" y2="171.9" stroke="#E1E0D9" stroke-width="1.0"/>
<text x="646.0" y="176.9" text-anchor="end" font-family="DejaVu Sans,Arial,sans-serif" font-size="13" font-weight="400" fill="#898781">0.75</text>
<line x1="656.0" y1="66.5" x2="1126.0" y2="66.5" stroke="#E1E0D9" stroke-width="1.0"/>
<text x="646.0" y="71.5" text-anchor="end" font-family="DejaVu Sans,Arial,sans-serif" font-size="13" font-weight="400" fill="#898781">1.25</text>
<line x1="656.0" y1="119.2" x2="1126.0" y2="119.2" stroke="#52514E" stroke-width="1.5" stroke-dasharray="7 5"/>
<text x="646.0" y="124.2" text-anchor="end" font-family="DejaVu Sans,Arial,sans-serif" font-size="13" font-weight="400" fill="#898781">1.00</text>
<line x1="656.0" y1="330.0" x2="1126.0" y2="330.0" stroke="#C3C2B7" stroke-width="1.5"/>
<path d="M684.2,330.0 L684.2,97.3 Q684.2,94.3 687.2,94.3 L742.3,94.3 Q745.3,94.3 745.3,97.3 L745.3,330.0 Z" fill="#2A78D6"/>
<text x="714.8" y="86.3" text-anchor="middle" font-family="DejaVu Sans,Arial,sans-serif" font-size="13" font-weight="400" fill="#52514E">1.118×</text>
<text x="714.8" y="356.0" text-anchor="middle" font-family="DejaVu Sans,Arial,sans-serif" font-size="15" font-weight="400" fill="#0B0B0B">E2E 8k</text>
<path d="M801.7,330.0 L801.7,98.4 Q801.7,95.4 804.7,95.4 L859.8,95.4 Q862.8,95.4 862.8,98.4 L862.8,330.0 Z" fill="#2A78D6"/>
<text x="832.2" y="87.4" text-anchor="middle" font-family="DejaVu Sans,Arial,sans-serif" font-size="13" font-weight="400" fill="#52514E">1.113×</text>
<text x="832.2" y="356.0" text-anchor="middle" font-family="DejaVu Sans,Arial,sans-serif" font-size="15" font-weight="400" fill="#0B0B0B">E2E 16k</text>
<path d="M919.2,330.0 L919.2,80.1 Q919.2,77.1 922.2,77.1 L977.3,77.1 Q980.3,77.1 980.3,80.1 L980.3,330.0 Z" fill="#2A78D6"/>
<text x="949.8" y="69.1" text-anchor="middle" font-family="DejaVu Sans,Arial,sans-serif" font-size="13" font-weight="400" fill="#52514E">1.200×</text>
<text x="949.8" y="356.0" text-anchor="middle" font-family="DejaVu Sans,Arial,sans-serif" font-size="15" font-weight="400" fill="#0B0B0B">TPOT 8k</text>
<path d="M1036.7,330.0 L1036.7,77.0 Q1036.7,74.0 1039.7,74.0 L1094.8,74.0 Q1097.8,74.0 1097.8,77.0 L1097.8,330.0 Z" fill="#2A78D6"/>
<text x="1067.2" y="66.0" text-anchor="middle" font-family="DejaVu Sans,Arial,sans-serif" font-size="13" font-weight="400" fill="#52514E">1.215×</text>
<text x="1067.2" y="356.0" text-anchor="middle" font-family="DejaVu Sans,Arial,sans-serif" font-size="15" font-weight="400" fill="#0B0B0B">TPOT 16k</text>
</svg>
